# xmcd
#
# Track frame offsets: 
#        150
#        14702
#        29131
#        43487
#        62689
#        80456
#        98577
#        116587
#        127111
#        150313
#        164939
#        182591
#        192424
#
# Disc length: 2732 seconds
#
# Revision: 0
# Processed by: cddbd v1.5.2PL0 Copyright (c) Steve Scherf et al.
# Submitted via: ExactAudioCopy v0.95b4
#
DISCID=ba0aaa0d
DTITLE=Danny Rhodes - Cairo To Cottonwood
DYEAR=2005
DGENRE=Blues
TTITLE0=Long String Of Blues
TTITLE1=Born To Wander
TTITLE2=Riding That Rhythm
TTITLE3=Time
TTITLE4=Romeo
TTITLE5=Brother Brother
TTITLE6=Take Me Away
TTITLE7=Alone In Arizona
TTITLE8=Lost In The Guitar
TTITLE9=Bad
TTITLE10=Baby Back
TTITLE11=Ruby Rose Breakdown
TTITLE12=Little Child
EXTD=
EXTT0=
EXTT1=
EXTT2=
EXTT3=
EXTT4=
EXTT5=
EXTT6=
EXTT7=
EXTT8=
EXTT9=
EXTT10=
EXTT11=
EXTT12=
PLAYORDER=
